HIERARCHY
ROOT SpineBase
{
  OFFSET 0.000000 0.000000 0.000000
  CHANNELS 6 Xposition Yposition Zposition Zrotation Xrotation Yrotation
  JOINT SpineMid
  {
    OFFSET -0.000000 31.863818 0.000000
    CHANNELS 3 Zrotation Xrotation Yrotation
    JOINT SpineShoulder
    {
      OFFSET 0.164398 23.644562 -0.948448
      CHANNELS 3 Zrotation Xrotation Yrotation
      JOINT Neck
      {
        OFFSET 0.083278 7.834570 -0.691097
        CHANNELS 3 Zrotation Xrotation Yrotation
        JOINT Head
        {
          OFFSET 1.496065 11.480463 -5.809381
          CHANNELS 3 Zrotation Xrotation Yrotation
          End Site
          {
            OFFSET 0 0 0
          }
        }
      }
      JOINT ShoulderLeft
      {
        OFFSET -17.305322 2.004061 0.124807
        CHANNELS 3 Zrotation Xrotation Yrotation
        JOINT ElbowLeft
        {
          OFFSET -4.945215 -25.714215 1.549170
          CHANNELS 3 Zrotation Xrotation Yrotation
          JOINT WristLeft
          {
            OFFSET -0.847246 -24.722093 -4.835736
            CHANNELS 3 Zrotation Xrotation Yrotation
            JOINT HandLeft
            {
              OFFSET 0.564156 -7.551382 -0.992015
              CHANNELS 3 Zrotation Xrotation Yrotation
              JOINT HandTipLeft
              {
                OFFSET 1.608021 -7.220301 -1.387159
                CHANNELS 3 Zrotation Xrotation Yrotation
                End Site
                {
                  OFFSET 0 0 0
                }
              }
              JOINT ThumbLeft
              {
                OFFSET -2.713679 -1.459384 -2.284182
                CHANNELS 3 Zrotation Xrotation Yrotation
                End Site
                {
                  OFFSET 0 0 0
                }
              }
            }
          }
        }
      }
      JOINT ShoulderRight
      {
        OFFSET 16.573777 0.255304 3.753351
        CHANNELS 3 Zrotation Xrotation Yrotation
        JOINT ElbowRight
        {
          OFFSET 2.073182 -26.466600 -1.385228
          CHANNELS 3 Zrotation Xrotation Yrotation
          JOINT WristRight
          {
            OFFSET -0.028249 -22.681495 -10.753508
            CHANNELS 3 Zrotation Xrotation Yrotation
            JOINT HandRight
            {
              OFFSET -1.872877 -4.285760 -2.115547
              CHANNELS 3 Zrotation Xrotation Yrotation
              JOINT HandTipRight
              {
                OFFSET 0.441679 -5.438579 -3.224483
                CHANNELS 3 Zrotation Xrotation Yrotation
                End Site
                {
                  OFFSET 0 0 0
                }
              }
              JOINT ThumbRight
              {
                OFFSET 3.489974 0.020761 -3.651428
                CHANNELS 3 Zrotation Xrotation Yrotation
                End Site
                {
                  OFFSET 0 0 0
                }
              }
            }
          }
        }
      }
    }
  }
  JOINT HipLeft
  {
    OFFSET -7.421479 1.399423 -4.778096
    CHANNELS 3 Zrotation Xrotation Yrotation
    JOINT KneeLeft
    {
      OFFSET -1.527679 -33.622805 -7.228834
      CHANNELS 3 Zrotation Xrotation Yrotation
      JOINT AnkleLeft
      {
        OFFSET -2.183644 -36.717881 6.767543
        CHANNELS 3 Zrotation Xrotation Yrotation
        JOINT FootLeft
        {
          OFFSET 1.206319 -5.162979 -6.382530
          CHANNELS 3 Zrotation Xrotation Yrotation
          End Site
          {
            OFFSET 0 0 0
          }
        }
      }
    }
  }
  JOINT HipRight
  {
    OFFSET 8.124021 0.366602 -2.646805
    CHANNELS 3 Zrotation Xrotation Yrotation
    JOINT KneeRight
    {
      OFFSET 2.472200 -34.098211 -4.209858
      CHANNELS 3 Zrotation Xrotation Yrotation
      JOINT AnkleRight
      {
        OFFSET -2.847773 -33.752277 5.890705
        CHANNELS 3 Zrotation Xrotation Yrotation
        JOINT FootRight
        {
          OFFSET -0.804028 -8.169866 -6.155018
          CHANNELS 3 Zrotation Xrotation Yrotation
          End Site
          {
            OFFSET 0 0 0
          }
        }
      }
    }
  }
}
MOTION
Frames: 6
Frame Time: 0.033333
-34.498460 76.661955 364.809762 0.000000 0.000000 -7.806595 -0.000000 0.000000 7.806595 -0.000000 0.000000 0.000000 -0.000000 0.000000 0.000000 0.000000 0.000000 0.000000 -0.000000 0.000000 0.000000 -0.000000 0.000000 0.000000 -0.000000 0.000000 0.000000 -0.000000 0.000000 0.000000 0.000000 0.000000 0.000000 0.000000 0.000000 0.000000 -0.000000 0.000000 0.000000 -0.000000 0.000000 0.000000 -0.000000 0.000000 0.000000 -0.000000 0.000000 0.000000 0.000000 0.000000 0.000000 0.000000 0.000000 0.000000 -0.000000 0.000000 7.806595 -0.000000 0.000000 0.000000 -0.000000 0.000000 0.000000 0.000000 0.000000 0.000000 -0.000000 0.000000 7.806595 -0.000000 0.000000 0.000000 -0.000000 0.000000 0.000000 0.000000 0.000000 0.000000
-34.539765 76.788067 364.284241 0.095628 0.137082 -8.167195 -0.075184 -0.149277 8.166983 -0.000000 0.000000 0.000000 -0.000000 0.000000 0.000000 0.000000 0.000000 0.000000 0.011110 1.363362 -0.261862 -0.939244 0.203828 0.379383 1.823871 3.596521 0.137654 -0.915605 -5.167243 -0.309351 0.000000 0.000000 0.000000 0.000000 0.000000 0.000000 -0.000000 0.000000 0.000000 0.428434 -1.175851 -0.198230 2.340346 1.108312 -1.198865 -2.845237 -5.729286 0.993476 0.000000 0.000000 0.000000 0.000000 0.000000 0.000000 -0.075184 -0.149277 8.166983 -0.000000 0.000000 0.000000 0.619527 -1.229037 -1.059075 0.000000 0.000000 0.000000 -0.075184 -0.149277 8.166983 -0.000000 0.000000 0.000000 -0.000000 0.000000 0.000000 0.000000 0.000000 0.000000
-34.574714 76.899195 363.810134 0.192221 0.224537 -8.494600 -0.156946 -0.250467 8.493881 -0.000000 0.000000 0.000000 -0.000000 0.000000 0.000000 0.000000 0.000000 0.000000 -0.093771 2.456804 -0.476728 -1.367588 0.769815 0.632127 3.437844 6.462602 0.274629 -2.063207 -9.690539 -0.637495 0.000000 0.000000 0.000000 0.000000 0.000000 0.000000 -0.000000 0.000000 0.000000 0.604989 -1.769329 -0.277319 3.759506 1.582359 -1.938858 -4.468953 -9.891526 1.535935 0.000000 0.000000 0.000000 0.000000 0.000000 0.000000 0.120976 -1.662048 8.549707 -0.065018 1.437203 -0.050372 1.108536 -2.587911 -2.001310 0.000000 0.000000 0.000000 -0.156946 -0.250467 8.493881 -0.258527 -0.828377 0.022871 1.207477 1.235941 -0.796825 0.000000 0.000000 0.000000
-34.603306 76.995338 363.387442 0.289804 0.262574 -8.789551 -0.246282 -0.303771 8.788234 -0.000000 0.000000 0.000000 -0.716538 0.257828 -0.394702 0.000000 0.000000 0.000000 -0.315584 3.299216 -0.645357 -1.302495 1.704487 0.781241 4.863052 8.577515 0.409727 -2.872709 -11.652333 -0.543100 0.000000 0.000000 0.000000 0.000000 0.000000 0.000000 -0.155258 -0.969834 -0.069197 0.714131 -0.874357 -0.198145 4.062619 1.533206 -2.046840 -4.894335 -12.263658 1.545959 0.000000 0.000000 0.000000 0.000000 0.000000 0.000000 0.123742 -2.276444 8.874239 -0.061375 2.006118 -0.076599 1.470135 -4.075362 -2.833361 0.000000 0.000000 0.000000 -0.246282 -0.303771 8.788234 -0.344894 -1.233567 0.040091 1.697892 1.836660 -1.158007 0.000000 0.000000 0.000000
-34.625542 77.076496 363.016164 0.388406 0.251372 -9.052658 -0.344022 -0.309348 9.050877 0.740420 0.575566 0.055506 -1.624059 -0.180459 -0.567452 0.000000 0.000000 0.000000 -1.393448 3.329821 -0.838618 -0.748426 3.017923 0.832994 6.121763 9.939254 0.551975 -5.003559 -12.232403 -0.342495 0.000000 0.000000 0.000000 0.000000 0.000000 0.000000 -0.823150 -1.977572 -0.170523 0.377558 -0.026972 -0.038662 3.169766 1.001729 -1.476196 -4.147419 -12.686848 0.991912 0.000000 0.000000 0.000000 0.000000 0.000000 0.000000 0.083639 -2.748512 9.167069 -0.033757 2.476109 -0.104049 1.707054 -5.691453 -3.561859 0.000000 0.000000 0.000000 -0.344022 -0.309348 9.050877 -0.403757 -1.633860 0.061467 2.113897 2.428801 -1.492111 0.000000 0.000000 0.000000
-34.641420 77.142670 362.696300 0.488052 0.191080 -9.284405 0.264468 0.249899 9.311571 0.094283 0.165337 0.042148 -1.899903 -0.004559 -0.668517 0.000000 0.000000 0.000000 -2.001074 3.720835 -0.936683 0.303473 4.724068 0.777622 7.238749 10.550997 0.719312 -7.795345 -11.093898 0.024529 0.000000 0.000000 0.000000 0.000000 0.000000 0.000000 -0.828864 -2.454885 -0.226529 -0.062953 1.895347 0.152690 0.941019 -0.566718 -0.213494 -2.225230 -10.992128 -0.065508 0.000000 0.000000 0.000000 0.000000 0.000000 0.000000 -0.002059 -3.079526 9.428178 -0.496484 2.154476 -0.163590 2.336995 -6.741245 -4.165314 0.000000 0.000000 0.000000 -0.450835 -0.267309 9.282539 -0.435786 -2.030026 0.087221 2.455778 3.014520 -1.797268 0.000000 0.000000 0.000000
